<?xml version="1.0" encoding="UTF-8"?>
<svg xmlns="http://www.w3.org/2000/svg" xmlns:xlink="http://www.w3.org/1999/xlink" viewBox="0 0 471.66 124.7">
<defs>
<clipPath id="clip-0">
<path clip-rule="nonzero" d="M 0.394531 14 L 110 14 L 110 124.402344 L 0.394531 124.402344 Z M 0.394531 14 "/>
</clipPath>
<clipPath id="clip-1">
<path clip-rule="nonzero" d="M 157 70 L 392 70 L 392 124.402344 L 157 124.402344 Z M 157 70 "/>
</clipPath>
<clipPath id="clip-2">
<path clip-rule="nonzero" d="M 407 98 L 470.925781 98 L 470.925781 124 L 407 124 Z M 407 98 "/>
</clipPath>
</defs>
<g clip-path="url(#clip-0)">
<path fill-rule="nonzero" fill="currentColor" fill-opacity="1" d="M 68.222656 124.109375 L 46.296875 124.109375 L 46.296875 110.785156 C 46.296875 97.964844 50.011719 86.277344 56.761719 77.875 C 64.355469 68.425781 75.152344 63.429688 87.984375 63.429688 L 94.945312 63.429688 L 94.945312 57.65625 C 94.945312 44.921875 90.308594 29.746094 68.222656 29.746094 L 42.085938 29.746094 C 19.996094 29.746094 15.359375 44.921875 15.359375 57.65625 L 15.359375 124.042969 L 0.394531 124.042969 L 0.394531 57.65625 C 0.394531 31.210938 16.371094 14.78125 42.085938 14.78125 L 68.222656 14.78125 C 93.9375 14.78125 109.910156 31.210938 109.910156 57.65625 L 109.910156 81.238281 C 109.910156 107.683594 93.9375 124.109375 68.222656 124.109375 M 61.289062 109.144531 L 68.222656 109.144531 C 90.308594 109.144531 94.945312 93.96875 94.945312 81.238281 L 94.945312 78.394531 L 87.984375 78.394531 C 68.976562 78.394531 61.785156 94.597656 61.289062 109.144531 "/>
</g>
<path fill-rule="nonzero" fill="currentColor" fill-opacity="1" d="M 294.101562 13.492188 C 298.15625 13.492188 301.273438 14.589844 303.449219 16.789062 C 305.625 18.988281 306.710938 22.191406 306.710938 26.394531 L 306.710938 51.46875 C 306.710938 52.054688 306.601562 52.445312 306.382812 52.640625 C 306.160156 52.835938 305.757812 52.933594 305.171875 52.933594 L 302.460938 52.933594 C 301.875 52.933594 301.46875 52.835938 301.25 52.640625 C 301.027344 52.445312 300.917969 52.054688 300.917969 51.46875 L 300.917969 27.640625 C 300.917969 24.511719 300.246094 22.226562 298.902344 20.785156 C 297.558594 19.34375 295.445312 18.625 292.5625 18.625 C 289.679688 18.625 287.355469 19.5625 285.597656 21.445312 C 283.835938 23.328125 282.957031 25.832031 282.957031 28.960938 L 282.957031 51.46875 C 282.957031 52.054688 282.847656 52.445312 282.628906 52.640625 C 282.40625 52.835938 282.003906 52.933594 281.417969 52.933594 L 278.707031 52.933594 C 278.121094 52.933594 277.714844 52.835938 277.496094 52.640625 C 277.277344 52.445312 277.167969 52.054688 277.167969 51.46875 L 277.167969 15.984375 C 277.167969 15.398438 277.277344 15.007812 277.496094 14.808594 C 277.714844 14.613281 278.121094 14.515625 278.707031 14.515625 L 281.273438 14.515625 C 281.859375 14.515625 282.261719 14.613281 282.480469 14.808594 C 282.703125 15.007812 282.8125 15.398438 282.8125 15.984375 L 282.8125 18.550781 C 285.351562 15.175781 289.117188 13.492188 294.101562 13.492188 Z M 252.679688 48.976562 C 259.375 48.976562 262.722656 44.917969 262.722656 36.804688 L 262.722656 30.644531 C 262.722656 22.53125 259.375 18.476562 252.679688 18.476562 C 245.984375 18.476562 242.636719 22.53125 242.636719 30.644531 L 242.636719 36.804688 C 242.636719 44.917969 245.984375 48.976562 252.679688 48.976562 Z M 252.679688 53.960938 C 247.644531 53.960938 243.746094 52.554688 240.984375 49.746094 C 238.222656 46.933594 236.84375 43.011719 236.84375 37.976562 L 236.84375 30.207031 C 236.84375 24.929688 238.222656 20.820312 240.984375 17.890625 C 243.746094 14.957031 247.644531 13.492188 252.679688 13.492188 C 257.714844 13.492188 261.609375 14.882812 264.375 17.667969 C 267.132812 20.457031 268.515625 24.390625 268.515625 29.472656 L 268.515625 37.246094 C 268.515625 42.523438 267.132812 46.628906 264.375 49.5625 C 261.609375 52.492188 257.714844 53.960938 252.679688 53.960938 Z M 228.191406 15.984375 L 228.191406 51.46875 C 228.191406 52.054688 228.082031 52.445312 227.863281 52.640625 C 227.644531 52.835938 227.238281 52.933594 226.652344 52.933594 L 223.941406 52.933594 C 223.355469 52.933594 222.949219 52.835938 222.730469 52.640625 C 222.511719 52.445312 222.402344 52.054688 222.402344 51.46875 L 222.402344 15.984375 C 222.402344 15.398438 222.511719 15.007812 222.730469 14.808594 C 222.949219 14.613281 223.355469 14.515625 223.941406 14.515625 L 226.652344 14.515625 C 227.238281 14.515625 227.644531 14.613281 227.863281 14.808594 C 228.082031 15.007812 228.191406 15.398438 228.191406 15.984375 Z M 225.332031 7.699219 C 224.207031 7.699219 223.316406 7.40625 222.65625 6.820312 C 222 6.234375 221.667969 5.425781 221.667969 4.402344 L 221.667969 3.226562 C 221.667969 2.25 222 1.46875 222.65625 0.882812 C 223.316406 0.292969 224.207031 0 225.332031 0 C 226.507812 0 227.433594 0.292969 228.121094 0.882812 C 228.804688 1.46875 229.144531 2.25 229.144531 3.226562 L 229.144531 4.402344 C 229.144531 5.425781 228.804688 6.234375 228.121094 6.820312 C 227.433594 7.40625 226.507812 7.699219 225.332031 7.699219 Z M 203.121094 15.984375 L 203.121094 21.554688 C 204.046875 19.453125 205.453125 17.753906 207.335938 16.460938 C 209.21875 15.164062 211.332031 14.515625 213.675781 14.515625 L 214.628906 14.515625 C 215.167969 14.515625 215.507812 14.613281 215.65625 14.808594 C 215.800781 15.007812 215.875 15.398438 215.875 15.984375 L 215.875 18.625 C 215.875 19.210938 215.800781 19.601562 215.65625 19.796875 C 215.507812 19.992188 215.167969 20.089844 214.628906 20.089844 L 212.722656 20.089844 C 209.839844 20.089844 207.542969 21.296875 205.832031 23.71875 C 204.121094 26.136719 203.265625 29.15625 203.265625 32.773438 L 203.265625 51.46875 C 203.265625 52.054688 203.15625 52.445312 202.9375 52.640625 C 202.714844 52.835938 202.3125 52.933594 201.726562 52.933594 L 199.011719 52.933594 C 198.425781 52.933594 198.023438 52.835938 197.804688 52.640625 C 197.585938 52.445312 197.472656 52.054688 197.472656 51.46875 L 197.472656 15.984375 C 197.472656 15.398438 197.585938 15.007812 197.804688 14.808594 C 198.023438 14.613281 198.425781 14.515625 199.011719 14.515625 L 201.578125 14.515625 C 202.164062 14.515625 202.570312 14.613281 202.789062 14.808594 C 203.011719 15.007812 203.121094 15.398438 203.121094 15.984375 Z M 183.03125 36.804688 L 183.03125 30.644531 C 183.03125 22.53125 179.707031 18.476562 173.0625 18.476562 C 166.363281 18.476562 163.015625 22.53125 163.015625 30.644531 L 163.015625 36.804688 C 163.015625 40.761719 163.859375 43.78125 165.546875 45.859375 C 167.230469 47.9375 169.710938 48.976562 172.988281 48.976562 C 179.683594 48.976562 183.03125 44.917969 183.03125 36.804688 Z M 173.792969 53.960938 C 168.953125 53.960938 165.363281 52.445312 163.015625 49.414062 L 163.015625 64.003906 C 163.015625 64.589844 162.90625 64.980469 162.6875 65.175781 C 162.464844 65.371094 162.0625 65.46875 161.476562 65.46875 L 158.765625 65.46875 C 158.179688 65.46875 157.773438 65.371094 157.554688 65.175781 C 157.335938 64.980469 157.226562 64.589844 157.226562 64.003906 L 157.226562 30.207031 C 157.226562 24.929688 158.605469 20.820312 161.367188 17.890625 C 164.128906 14.957031 168.027344 13.492188 173.0625 13.492188 C 178.046875 13.492188 181.917969 14.859375 184.679688 17.597656 C 187.441406 20.332031 188.824219 24.167969 188.824219 29.105469 L 188.824219 36.878906 C 188.824219 48.265625 183.8125 53.960938 173.792969 53.960938 "/>
<g clip-path="url(#clip-1)">
<path fill-rule="nonzero" fill="currentColor" fill-opacity="1" d="M 391.609375 72.640625 L 391.609375 121.90625 C 391.609375 122.496094 391.5 122.886719 391.277344 123.082031 C 391.058594 123.277344 390.65625 123.375 390.070312 123.375 L 387.355469 123.375 C 386.769531 123.375 386.367188 123.277344 386.144531 123.082031 C 385.925781 122.886719 385.816406 122.496094 385.816406 121.90625 L 385.816406 72.640625 C 385.816406 72.054688 385.925781 71.664062 386.144531 71.46875 C 386.367188 71.273438 386.769531 71.175781 387.355469 71.175781 L 390.070312 71.175781 C 390.65625 71.175781 391.058594 71.273438 391.277344 71.46875 C 391.5 71.664062 391.609375 72.054688 391.609375 72.640625 Z M 362.796875 104.753906 C 359.03125 104.753906 356.429688 105.339844 354.988281 106.511719 C 353.546875 107.683594 352.824219 109.640625 352.824219 112.378906 C 352.824219 114.773438 353.511719 116.507812 354.878906 117.582031 C 356.246094 118.65625 358.59375 119.195312 361.917969 119.195312 L 362.574219 119.195312 C 365.460938 119.195312 367.523438 118.5 368.769531 117.105469 C 370.015625 115.710938 370.640625 113.476562 370.640625 110.398438 L 370.640625 105.414062 C 369.175781 105.214844 367.71875 105.058594 366.277344 104.933594 C 364.835938 104.8125 363.675781 104.753906 362.796875 104.753906 Z M 362.355469 99.914062 C 363.335938 99.914062 364.582031 99.960938 366.09375 100.058594 C 367.609375 100.15625 369.125 100.304688 370.640625 100.5 L 370.640625 96.175781 C 370.640625 93.488281 370.015625 91.542969 368.769531 90.347656 C 367.523438 89.148438 365.484375 88.550781 362.648438 88.550781 C 360.402344 88.550781 358.667969 88.878906 357.445312 89.539062 C 356.222656 90.199219 355.269531 91.335938 354.585938 92.949219 C 354.390625 93.4375 354.207031 93.769531 354.035156 93.9375 C 353.863281 94.109375 353.484375 94.195312 352.898438 94.195312 L 350.257812 94.195312 C 349.625 94.195312 349.195312 94.097656 348.976562 93.902344 C 348.757812 93.707031 348.648438 93.339844 348.648438 92.804688 C 348.648438 92.117188 348.84375 91.359375 349.234375 90.527344 C 349.625 89.699219 350.113281 88.964844 350.699219 88.332031 C 351.96875 86.863281 353.570312 85.765625 355.503906 85.03125 C 357.433594 84.296875 359.816406 83.929688 362.648438 83.929688 C 367.539062 83.929688 371.058594 84.871094 373.207031 86.753906 C 375.355469 88.636719 376.433594 91.726562 376.433594 96.027344 L 376.433594 111.058594 C 376.433594 115.457031 375.320312 118.730469 373.097656 120.882812 C 370.875 123.03125 367.367188 124.105469 362.574219 124.105469 L 361.476562 124.105469 C 356.539062 124.105469 352.875 123.179688 350.480469 121.320312 C 348.085938 119.464844 346.886719 116.507812 346.886719 112.449219 C 346.886719 108.101562 348.144531 104.921875 350.664062 102.917969 C 353.179688 100.914062 357.078125 99.914062 362.355469 99.914062 Z M 326.140625 119.414062 C 331.125 119.414062 333.984375 117.3125 334.71875 113.109375 C 334.816406 112.570312 334.960938 112.230469 335.15625 112.085938 C 335.351562 111.9375 335.765625 111.863281 336.402344 111.863281 L 338.824219 111.863281 C 339.457031 111.863281 339.886719 111.960938 340.105469 112.15625 C 340.324219 112.351562 340.433594 112.71875 340.433594 113.257812 C 340.433594 115.164062 339.726562 117.191406 338.308594 119.34375 C 336.0625 122.714844 331.957031 124.402344 325.992188 124.402344 C 321.105469 124.402344 317.378906 123.042969 314.8125 120.332031 C 312.246094 117.617188 310.964844 113.648438 310.964844 108.417969 L 310.964844 101.160156 C 310.964844 95.492188 312.246094 91.203125 314.8125 88.292969 C 317.378906 85.386719 321.105469 83.929688 325.992188 83.929688 C 331.320312 83.929688 335.179688 85.273438 337.578125 87.964844 C 339.433594 90.066406 340.363281 92.433594 340.363281 95.074219 C 340.363281 95.613281 340.253906 95.980469 340.03125 96.175781 C 339.8125 96.371094 339.386719 96.46875 338.75 96.46875 L 336.402344 96.46875 C 335.765625 96.46875 335.351562 96.382812 335.15625 96.210938 C 334.960938 96.039062 334.816406 95.710938 334.71875 95.222656 C 334.472656 93.167969 333.617188 91.59375 332.152344 90.492188 C 330.683594 89.394531 328.730469 88.84375 326.285156 88.84375 C 323.011719 88.84375 320.605469 89.820312 319.066406 91.777344 C 317.527344 93.730469 316.753906 96.835938 316.753906 101.085938 L 316.753906 107.246094 C 316.753906 111.398438 317.511719 114.464844 319.027344 116.445312 C 320.542969 118.425781 322.914062 119.414062 326.140625 119.414062 Z M 302.3125 86.425781 L 302.3125 121.90625 C 302.3125 122.496094 302.203125 122.886719 301.984375 123.082031 C 301.761719 123.277344 301.359375 123.375 300.773438 123.375 L 298.058594 123.375 C 297.472656 123.375 297.070312 123.277344 296.851562 123.082031 C 296.628906 122.886719 296.519531 122.496094 296.519531 121.90625 L 296.519531 86.425781 C 296.519531 85.835938 296.628906 85.445312 296.851562 85.25 C 297.070312 85.054688 297.472656 84.957031 298.058594 84.957031 L 300.773438 84.957031 C 301.359375 84.957031 301.761719 85.054688 301.984375 85.25 C 302.203125 85.445312 302.3125 85.835938 302.3125 86.425781 Z M 299.453125 78.140625 C 298.328125 78.140625 297.4375 77.847656 296.777344 77.261719 C 296.117188 76.671875 295.789062 75.867188 295.789062 74.839844 L 295.789062 73.667969 C 295.789062 72.691406 296.117188 71.90625 296.777344 71.320312 C 297.4375 70.734375 298.328125 70.441406 299.453125 70.441406 C 300.625 70.441406 301.554688 70.734375 302.238281 71.320312 C 302.921875 71.90625 303.265625 72.691406 303.265625 73.667969 L 303.265625 74.839844 C 303.265625 75.867188 302.921875 76.671875 302.238281 77.261719 C 301.554688 77.847656 300.625 78.140625 299.453125 78.140625 Z M 261.332031 101.085938 L 261.332031 107.246094 C 261.332031 115.359375 264.652344 119.414062 271.300781 119.414062 C 277.996094 119.414062 281.34375 115.359375 281.34375 107.246094 L 281.34375 101.085938 C 281.34375 92.972656 278.023438 88.917969 271.375 88.917969 C 264.679688 88.917969 261.332031 92.972656 261.332031 101.085938 Z M 270.566406 83.929688 C 275.308594 83.929688 278.902344 85.445312 281.34375 88.476562 L 281.34375 72.640625 C 281.34375 72.054688 281.453125 71.664062 281.675781 71.46875 C 281.894531 71.273438 282.296875 71.175781 282.886719 71.175781 L 285.597656 71.175781 C 286.183594 71.175781 286.585938 71.273438 286.804688 71.46875 C 287.027344 71.664062 287.136719 72.054688 287.136719 72.640625 L 287.136719 107.683594 C 287.136719 112.964844 285.757812 117.070312 282.996094 120 C 280.234375 122.933594 276.335938 124.402344 271.300781 124.402344 C 266.316406 124.402344 262.441406 123.03125 259.679688 120.292969 C 256.917969 117.558594 255.539062 113.722656 255.539062 108.785156 L 255.539062 100.648438 C 255.539062 95.417969 256.871094 91.324219 259.535156 88.367188 C 262.199219 85.410156 265.875 83.929688 270.566406 83.929688 Z M 233.398438 88.476562 C 226.996094 88.476562 223.769531 92.703125 223.71875 101.160156 L 242.636719 101.160156 C 242.636719 96.808594 241.890625 93.609375 240.398438 91.554688 C 238.910156 89.503906 236.574219 88.476562 233.398438 88.476562 Z M 246.960938 105.925781 L 223.71875 105.925781 L 223.71875 107.320312 C 223.71875 115.382812 226.996094 119.414062 233.542969 119.414062 C 237.699219 119.414062 240.460938 117.828125 241.828125 114.648438 C 242.074219 114.0625 242.292969 113.710938 242.488281 113.585938 C 242.683594 113.464844 243.027344 113.402344 243.515625 113.402344 L 246.152344 113.402344 C 246.839844 113.402344 247.277344 113.464844 247.472656 113.585938 C 247.667969 113.710938 247.765625 114.039062 247.765625 114.578125 C 247.765625 115.261719 247.5 116.140625 246.960938 117.214844 C 246.421875 118.292969 245.8125 119.21875 245.128906 120 C 243.90625 121.371094 242.246094 122.445312 240.144531 123.226562 C 238.039062 124.007812 235.769531 124.402344 233.324219 124.402344 C 228.4375 124.402344 224.648438 122.960938 221.960938 120.074219 C 219.273438 117.191406 217.929688 113.085938 217.929688 107.757812 L 217.929688 102.261719 C 217.929688 96.394531 219.261719 91.875 221.925781 88.695312 C 224.589844 85.519531 228.414062 83.929688 233.398438 83.929688 C 243.464844 83.929688 248.5 89.527344 248.5 100.71875 L 248.5 104.460938 C 248.5 105.046875 248.390625 105.4375 248.171875 105.632812 C 247.949219 105.828125 247.546875 105.925781 246.960938 105.925781 Z M 197.472656 83.929688 C 201.382812 83.929688 204.390625 85.03125 206.492188 87.230469 C 208.59375 89.429688 209.644531 92.632812 209.644531 96.835938 L 209.644531 121.90625 C 209.644531 122.496094 209.535156 122.886719 209.316406 123.082031 C 209.09375 123.277344 208.691406 123.375 208.105469 123.375 L 205.390625 123.375 C 204.804688 123.375 204.402344 123.277344 204.183594 123.082031 C 203.960938 122.886719 203.851562 122.496094 203.851562 121.90625 L 203.851562 98.082031 C 203.851562 94.953125 203.21875 92.667969 201.945312 91.226562 C 200.675781 89.785156 198.671875 89.0625 195.933594 89.0625 C 193.148438 89.0625 190.914062 89.992188 189.226562 91.847656 C 187.539062 93.707031 186.695312 96.222656 186.695312 99.402344 L 186.695312 121.90625 C 186.695312 122.496094 186.585938 122.886719 186.367188 123.082031 C 186.148438 123.277344 185.742188 123.375 185.15625 123.375 L 182.445312 123.375 C 181.859375 123.375 181.457031 123.277344 181.234375 123.082031 C 181.015625 122.886719 180.90625 122.496094 180.90625 121.90625 L 180.90625 98.082031 C 180.90625 94.953125 180.269531 92.667969 179 91.226562 C 177.730469 89.785156 175.722656 89.0625 172.988281 89.0625 C 170.199219 89.0625 167.964844 89.992188 166.28125 91.847656 C 164.59375 93.707031 163.75 96.222656 163.75 99.402344 L 163.75 121.90625 C 163.75 122.496094 163.640625 122.886719 163.421875 123.082031 C 163.199219 123.277344 162.796875 123.375 162.210938 123.375 L 159.496094 123.375 C 158.910156 123.375 158.507812 123.277344 158.289062 123.082031 C 158.066406 122.886719 157.957031 122.496094 157.957031 121.90625 L 157.957031 86.425781 C 157.957031 85.835938 158.066406 85.445312 158.289062 85.25 C 158.507812 85.054688 158.910156 84.957031 159.496094 84.957031 L 162.0625 84.957031 C 162.648438 84.957031 163.054688 85.054688 163.273438 85.25 C 163.492188 85.445312 163.605469 85.835938 163.605469 86.425781 L 163.605469 88.988281 C 166.046875 85.617188 169.6875 83.929688 174.527344 83.929688 C 179.855469 83.929688 183.472656 85.933594 185.378906 89.945312 C 186.941406 87.792969 188.675781 86.253906 190.582031 85.324219 C 192.488281 84.394531 194.785156 83.929688 197.472656 83.929688 "/>
</g>
<g clip-path="url(#clip-2)">
<path fill-rule="nonzero" fill="currentColor" fill-opacity="1" d="M 462.804688 123.761719 C 460.304688 123.761719 458.25 123.109375 456.648438 121.796875 C 455.050781 120.488281 454.074219 118.75 453.714844 116.582031 L 456.796875 115.824219 C 457.058594 117.492188 457.742188 118.761719 458.851562 119.632812 C 459.964844 120.503906 461.316406 120.941406 462.914062 120.941406 C 463.84375 120.941406 464.679688 120.761719 465.417969 120.402344 C 466.15625 120.042969 466.742188 119.535156 467.171875 118.886719 C 467.597656 118.226562 467.8125 117.480469 467.8125 116.648438 C 467.8125 115.765625 467.574219 115.039062 467.105469 114.464844 C 466.625 113.894531 465.964844 113.390625 465.117188 112.960938 C 464.265625 112.53125 463.28125 112.105469 462.164062 111.671875 C 460.78125 111.148438 459.570312 110.574219 458.535156 109.957031 C 457.496094 109.339844 456.691406 108.59375 456.121094 107.722656 C 455.542969 106.851562 455.253906 105.785156 455.253906 104.519531 C 455.253906 103.253906 455.5625 102.136719 456.191406 101.15625 C 456.808594 100.179688 457.679688 99.410156 458.804688 98.84375 C 459.921875 98.285156 461.21875 98.003906 462.695312 98.003906 C 464.269531 98.003906 465.667969 98.363281 466.882812 99.082031 C 468.101562 99.792969 469.078125 100.855469 469.816406 102.265625 L 467.3125 103.800781 C 466.765625 102.824219 466.097656 102.078125 465.308594 101.566406 C 464.523438 101.054688 463.617188 100.796875 462.59375 100.796875 C 461.785156 100.796875 461.0625 100.953125 460.429688 101.257812 C 459.796875 101.570312 459.300781 102 458.941406 102.542969 C 458.585938 103.097656 458.40625 103.730469 458.40625 104.449219 C 458.40625 105.207031 458.621094 105.855469 459.054688 106.394531 C 459.480469 106.933594 460.097656 107.40625 460.910156 107.8125 C 461.71875 108.21875 462.695312 108.632812 463.839844 109.058594 C 465.296875 109.609375 466.550781 110.207031 467.601562 110.855469 C 468.652344 111.492188 469.472656 112.261719 470.054688 113.160156 C 470.636719 114.050781 470.925781 115.152344 470.925781 116.472656 C 470.925781 117.875 470.578125 119.125 469.886719 120.222656 C 469.195312 121.320312 468.242188 122.183594 467.023438 122.816406 C 465.8125 123.445312 464.40625 123.761719 462.804688 123.761719 Z M 440.585938 123.804688 C 437.628906 123.804688 435.367188 123.003906 433.804688 121.410156 C 432.242188 119.804688 431.460938 117.457031 431.460938 114.355469 L 431.460938 98.433594 L 434.613281 98.433594 L 434.613281 113.996094 C 434.613281 115.5 434.808594 116.761719 435.199219 117.789062 C 435.59375 118.816406 436.230469 119.597656 437.117188 120.121094 C 438 120.648438 439.15625 120.910156 440.585938 120.910156 C 442.015625 120.910156 443.179688 120.640625 444.078125 120.101562 C 444.96875 119.5625 445.617188 118.78125 446.023438 117.757812 C 446.429688 116.734375 446.632812 115.46875 446.632812 113.96875 L 446.632812 98.433594 L 449.746094 98.433594 L 449.746094 114.175781 C 449.746094 117.328125 448.964844 119.71875 447.402344 121.347656 C 445.835938 122.984375 443.566406 123.804688 440.585938 123.804688 Z M 423.988281 117.507812 L 412.964844 117.507812 L 413.929688 114.675781 L 422.949219 114.675781 Z M 411.136719 123.375 L 407.667969 123.375 L 417.183594 98.433594 L 419.6875 98.433594 L 429.203125 123.375 L 425.773438 123.375 L 418.46875 102.941406 L 411.136719 123.375 "/>
</g>
</svg>
